#!OML:ASF F:\VICON\USERDATA\INSTALL\rory3\rory3.ASF
:FULLY-SPECIFIED
:DEGREES
19
root -0.6419760317479691 17.68320093248506 -13.63869065038759 -1.443402326311638 6.873764402984101 -3.8860754810843834
lfemur -23.751495920870408 -3.5018230004608584 -21.614798867659587
ltibia 40.959604633339474
lfoot -11.770491996728364 -10.71139388743888
ltoes -1.5494390239154843
rfemur -7.6380753301989905 -2.109073517608749 27.04960375529271
rtibia 96.09898865247399
rfoot 21.073189087599005 -13.16358962457693
rtoes 16.75529106259753
lowerback 16.497294635484977 1.0708685913804965 2.7687665359482985
upperback -0.08104018777185096 2.0672180383900507 1.1520152444739202
thorax -9.314926447008249 0.8915203793086182 -0.8248265632379427
lowerneck -18.957109094300737 -5.346237068944437 -1.6914257463877636
upperneck 15.2428908125415 -7.620285747627456 4.051617609656949
head 8.059281610746092 -3.300166925302631 0.6760169325131471
lclavicle -1.7288339579140553e-15 1.783627740629379e-15
lhumerus -61.08469310126232 -12.545202548319788 100.14099148708108
lradius 104.07300444904128
lwrist 33.45060031305122
lhand -25.856195481089546 0.7974909758354536
lfingers 7.12502
lthumb 0.684611519400963 30.77610395177544
rclavicle -1.7288339579140553e-15 1.783627740629379e-15
rhumerus -48.45430221697046 14.403489815674888 -101.75298744529049
rradius 104.67300786406638
rwrist -7.877918230301855
rhand -19.721584468400557 40.739094005457744
rfingers 7.12502
rthumb 6.608565532168662 10.86219468936517
20
root -0.6466339103870664 17.47490431414389 -12.685891039268492 -1.142003884183656 6.63226503288362 -2.5196102223006083
lfemur -22.37229655418441 -3.797762318587235 -23.29889628152626
ltibia 45.081003001255546
lfoot -17.15248826865023 -7.689818902664648
ltoes 2.0965073225176187
rfemur -13.30770288516755 -3.7861098897905276 23.90240920158558
rtibia 102.40698647708163
rfoot 20.9978891398462 -9.95280439973143
rtoes 15.041692191438207
lowerback 16.84359273138025 1.0303288417645033 0.9001372992779871
upperback 0.15045853836227496 1.6215396971318086 0.8064198388995274
thorax -9.309296525011272 0.7562996184504949 -0.03689989538283012
lowerneck -19.70270474383185 -5.254087752484087 -1.3674711134684912
upperneck 15.087891778435758 -7.553946082323309 3.969378362841346
head 8.117170200135464 -3.248607496699133 0.5904370412084002
lclavicle -1.7288340642170575e-15 1.7836277577894746e-15
lhumerus -56.90879589786926 -14.232599849969652 100.17699136519632
lradius 104.53000395767764
lwrist 34.90129571553891
lhand -24.961000402569145 0.056295737182686656
lfingers 7.12502
lthumb 1.5492695971520145 30.030406436413436
rclavicle -1.7288340642170575e-15 1.7836277577894746e-15
rhumerus -49.23730147087694 13.324791676259078 -101.86498716016362
rradius 101.65501299726837
rwrist -6.520573173385253
rhand -22.246571700123983 37.443715014804695
rfingers 7.12502
rthumb 4.170698307340958 7.504846518230566
21
root -0.532049920893085 17.032246704640585 -0.4740967286433939 1.0648367104165053 4.237716540466669 0.023674502486686233
lfemur -20.859990507722955 0.54669512175249 -26.132994439436487
ltibia 48.01550152999979
lfoot -20.44555290246612 -1.703198125066126
ltoes 1.6576935285721444
rfemur -19.054332111773572 -4.472582321965591 21.823006473317456
rtibia 111.36327984335094
rfoot 13.89681478395304 -7.929687667383913
rtoes 23.659092255753286
lowerback 17.322794071119272 1.8989531288175994 -2.0311886454703894
upperback -0.24251823741968637 2.1755724805835213 -0.23567111687177178
thorax -10.295423459367992 1.107347700006218 0.757975442993734
lowerneck -19.939003416309514 -4.936611830622163 -1.5499006450699082
upperneck 13.217629528594106 -7.0778773109528395 4.46907214837327
head 7.620064933472985 -3.005296304112757 1.0368408337341037
lclavicle -2.0030758515304104e-15 1.5845922295837648e-15
lhumerus -50.288461850387854 -19.29175277799289 100.4720640574803
lradius 104.90090198831406
lwrist 33.57063934232473
lhand -25.90570193194485 2.644175970313342
lfingers 7.12502
lthumb 0.6369266341966386 32.60324543663544
rclavicle -2.003075851530411e-15 1.5845922295837648e-15
rhumerus -48.60612277941397 7.473732384540263 -101.07387055558819
rradius 99.65137329347735
rwrist -6.839332579208511
rhand -18.229645106096765 38.38130231361532
rfingers 7.12502
rthumb 8.048375090139256 8.504964172664907
22
root -0.530334949927713 16.859492180260425 -0.7215239532818849 1.4945439063894592 3.6061970791906717 0.30910270920665806
lfemur -19.100481182309313 0.08978709532132062 -26.986304607346185
ltibia 48.989565274713875
lfoot -24.33059916550679 1.4496483206517192
ltoes 1.1636754324862935
rfemur -27.283325165832217 -5.280824397486663 20.186762314695777
rtibia 115.03069513271097
rfoot 10.089872027437108 -6.795403369890738
rtoes 19.654194039466287
lowerback 17.653560073605856 1.77129231184625 -2.9764137426187096
upperback -0.11503173248092102 1.834832426815658 -0.4465660953874666
thorax -10.480158321248206 0.9890859859775094 1.0988810978048442
lowerneck -20.753742110702635 -4.926373183254143 -1.647443175361436
upperneck 12.65834897931493 -7.047330839124144 4.603445645678869
head 7.559953570877325 -2.969450191420114 1.103239459673544
lclavicle -3.1558611205942542e-15 7.477978268349234e-16
lhumerus -45.679959593999776 -21.636143515118327 100.16140460868714
lradius 104.61387231521559
lwrist 32.62385815848637
lhand -25.250883752206526 1.780548204554474
lfingers 7.12502
lthumb 1.2694434953559681 31.733438962616102
rclavicle -3.1558611205942542e-15 7.477978268349234e-16
rhumerus -50.683852841765066 5.266564088898312 -101.02736613268218
rradius 98.66604205561747
rwrist -7.66179695328476
rhand -17.792251444273273 38.473650163815215
rfingers 7.12502
rthumb 8.470446984404749 8.69611739354565
23
root -0.500348226750282 16.82501438904756 -1.007460914573164 2.092397686528976 3.2442728504294704 0.4307436900379886
lfemur -16.33584187931193 0.1557768065744241 -27.005564158244376
ltibia 48.76855720393027
lfoot -25.980533331590927 3.3783830591440376
ltoes -2.299561764360675
rfemur -33.987673721206605 -6.1013876046984645 19.99329453482546
rtibia 117.17465579742424
rfoot 8.063797879240004 -5.914402087708623
rtoes 17.352443145437128
lowerback 17.76689789381507 1.4695459292874755 -3.2958385934143166
upperback -0.06490522830675816 1.3651468551326502 -0.3526654942469647
thorax -10.499846210008807 0.7954718073646726 1.5529023533895283
lowerneck -21.144271149107656 -4.674067234893064 -1.796199421035713
upperneck 12.339122870370582 -6.643961429352862 4.599098901607107
head 7.502126184461802 -2.780586013705522 1.1695357603128482
lclavicle -3.2781178716645534e-15 6.577123118742546e-16
lhumerus -41.44073839741462 -22.984059312512954 99.88003605259863
lradius 104.82204653099694
lwrist 31.076486052254666
lhand -24.772986136062393 1.1797423128951192
lfingers 7.12502
lthumb 1.7309585083274897 31.140391873228804
rclavicle -3.2781178716645534e-15 6.577123118742546e-16
rhumerus -52.52697433214733 5.073357197115655 -100.84334812358388
rradius 99.3928372214098
rwrist -9.158590566831743
rhand -17.488223547873236 38.81067063955021
rfingers 7.12502
rthumb 8.763906748603478 8.936564570563297
24
root -0.4725559553617207 16.837767157370507 -1.7591269528843174 2.570284994227062 3.124922240027728 0.4343773820012502
lfemur -14.027201244148026 -0.5068159041995253 -27.280227746892734
ltibia 46.43652848583778
lfoot -26.306003912916456 3.886132933978245
ltoes -6.2432838985507875
rfemur -40.30768274597719 -6.852655415158845 19.96689197381849
rtibia 116.31677416452499
rfoot 6.157176268551288 -6.077992027960997
rtoes 13.177095534288451
lowerback 17.557631783412212 0.9681084793366582 -3.7169438612344265
upperback -0.2409146043681918 0.6230895836671445 -0.2299329208894365
thorax -10.541578843770678 0.48236256684185774 2.016923938073312
lowerneck -21.391502256248536 -4.46553912836075 -1.8275652753930454
upperneck 12.179626510809198 -6.338152042250688 4.447784120698206
head 7.459206636444908 -2.6424022027354184 1.1515974383226628
lclavicle -4.3854205423401875e-15 -1.4391575047752172e-16
lhumerus -39.15561688043866 -23.28175400516996 99.26304142982599
lradius 106.56258409235937
lwrist 30.492486698087994
lhand -24.94492567068954 1.1219322698092555
lfingers 7.12502
lthumb 1.5648304609211752 31.08837981884913
rclavicle -4.3854205423401875e-15 -1.4391575047752211e-16
rhumerus -54.64177517573081 5.053565582731576 -101.00722751747591
rradius 100.8342276736617
rwrist -10.591325710515996
rhand -16.958389058181982 38.89866988359859
rfingers 7.12502
rthumb 9.275128251528967 9.02562701296277
25
root -0.3991692097110739 16.964215295077345 -0.15206617657288213 3.088638110732342 3.192821241489487 0.6431710194116969
lfemur -9.684264646444339 -0.5488537922119816 -26.91297775326728
ltibia 46.16939511268982
lfoot -23.87427324618691 4.059069676281225
ltoes -10.233017781757964
rfemur -43.2928242830678 -6.619816636190327 20.599408668600226
rtibia 115.46095291010288
rfoot 5.608329729267425 -5.053022179900444
rtoes 10.61218060864507
lowerback 17.55908062720117 0.5937592157365912 -3.711434385641046
upperback -0.3896184499827182 0.12686454092593458 0.1167531624219762
thorax -10.58716120670689 0.27018561600547153 2.7801549103480054
lowerneck -21.21751534841895 -4.0272461283169285 -1.7664210808097545
upperneck 12.2017757869149 -5.685332584267075 4.223783016609535
head 7.435555703057047 -2.3641509453870735 1.1269316686998543
lclavicle -3.092865151672565e-15 7.930203436328145e-16
lhumerus -36.47303826601299 -22.399889716898194 98.99637178632229
lradius 109.6640762099065
lwrist 31.728037440996133
lhand -25.16915912389868 0.964721726961306
lfingers 7.12502
lthumb 1.348226068352566 30.92836652167198
rclavicle -3.092865151672565e-15 7.930203436328145e-16
rhumerus -55.97147515377219 6.011388009314588 -100.78943910581744
rradius 102.95291491463996
rwrist -11.848808667619616
rhand -16.55272059174746 39.16462063450003
rfingers 7.12502
rthumb 9.66653216509522 9.151227210480705
26
root -0.3762467664092866 17.10902128376366 -0.2736153842833371 3.3828556051106844 2.488053847427415 0.4135399599274865
lfemur -6.406759349797209 -0.5247067333828718 -26.810569562111784
ltibia 43.3078011689716
lfoot -21.107257478144938 2.9361056333693165
ltoes -16.19156394296966
rfemur -47.0524166922542 -6.093547109707119 21.150504919909878
rtibia 109.34764536456703
rfoot 3.5462030811901277 -4.475192927086411
rtoes 7.374844176169617
lowerback 17.230356779255054 0.13945624004212465 -3.932198939987959
upperback -0.6064349526710227 -0.48361693031740893 0.48306250511816895
thorax -10.573793823707701 0.009855553983453613 3.3502836968789467
lowerneck -21.15560342311323 -3.6835695591409374 -1.7336280781284008
upperneck 12.31111911165241 -5.196713421370026 3.9238240819624406
head 7.424025983907123 -2.153513048719943 1.0641779064604002
lclavicle -3.879404547496564e-15 2.2325770224644258e-16
lhumerus -35.53017894166412 -21.859807232744892 98.4585613372824
lradius 112.64972413160856
lwrist 33.670504107440344
lhand -25.34650721668177 0.3824876269915034
lfingers 7.12502
lthumb 1.1769391116778012 30.342967290991947
rclavicle -3.879404547496564e-15 2.2325770224644258e-16
rhumerus -58.01483221205184 6.831306849781077 -100.77572527854794
rradius 104.56709305654806
rwrist -12.665397012692601
rhand -16.083045270324302 39.29077127019941
rfingers 7.12502
rthumb 10.119556207994544 9.284155402873651
